# xmcd CD database file
#
# Track frame offsets:
#	150
#	15653
#	28831
#	43130
#	55218
#	68143
#	79969
#	93641
#	106206
#	120299
#	133187
#	145942
#	158344
#	170074
#	183163
#	195014
#	208151
#	220496
#	232743
#	243128
#	256797
#	269794
#	283555
#	295249
#
# Disc length: 4101 seconds
#
# Revision: 2
# Processed by: cddbd v1.5.2PL0 Copyright (c) Steve Scherf et al.
# Submitted via: CDex 1.81
#
DISCID=59100318
DTITLE=Mildred Bailey - Sunday, Monday or Always
DYEAR=2005
DGENRE=Jazz
TTITLE0=When Day is done
TTITLE1=I've Got My Love To Keep me Warm
TTITLE2=Rockin' Chair
TTITLE3=Thanks for the Memory
TTITLE4=Rock it for me
TTITLE5=Daydreaming
TTITLE6=A Cigarette and a Silhouette
TTITLE7=You leave me Breathless
TTITLE8=Savin' Myself for you
TTITLE9=Put your Heart in a Song
TTITLE10=Wigwammin'
TTITLE11=The Sunny Side of Things
TTITLE12=How can I thank you?
TTITLE13=Garden of the Moon
TTITLE14=Now it can be told
TTITLE15=Jumps Jumps Here
TTITLE16=I haven't changed a Thing
TTITLE17=Love is where you find it
TTITLE18=I Used to be Colour blind
TTITLE19=A Tisket, A Tasket
TTITLE20=This is Madness
TTITLE21=Who blew out the Flame
TTITLE22=St. Louis Blues
TTITLE23=Have you Forgotten so soon?
EXTD=YEAR: 2005
EXTT0=
EXTT1=
EXTT2=
EXTT3=
EXTT4=
EXTT5=
EXTT6=
EXTT7=
EXTT8=
EXTT9=
EXTT10=
EXTT11=
EXTT12=
EXTT13=
EXTT14=
EXTT15=
EXTT16=
EXTT17=
EXTT18=
EXTT19=
EXTT20=
EXTT21=
EXTT22=
EXTT23=
PLAYORDER=
